HIERARCHY
ROOT Hips
{
	OFFSET 0.0000 0.0000 0.0000
	CHANNELS 6 Xposition Yposition Zposition Zrotation Xrotation Yrotation
	JOINT Spine1
	{
		OFFSET -0.0137 5.0038 -0.0537
		CHANNELS 3 Zrotation Xrotation Yrotation
		JOINT Spine2
		{
			OFFSET -0.0000 7.1253 -0.0298
			CHANNELS 3 Zrotation Xrotation Yrotation
			JOINT Chest
			{
				OFFSET -0.0000 7.5501 -0.8160
				CHANNELS 3 Zrotation Xrotation Yrotation
				JOINT Neck1
				{
					OFFSET -0.1817 26.3113 -0.5533
					CHANNELS 3 Zrotation Xrotation Yrotation
					JOINT Neck2
					{
						OFFSET -0.0000 7.7094 2.3026
						CHANNELS 3 Zrotation Xrotation Yrotation
						JOINT Head
						{
							OFFSET -0.0000 6.1289 1.9537
							CHANNELS 3 Zrotation Xrotation Yrotation
							JOINT Jaw
							{
								OFFSET 0.0026 0.4756 3.0949
								CHANNELS 3 Zrotation Xrotation Yrotation
								End Site
								{
									OFFSET 0.0 1.0 0.0
								}
							}
							JOINT LeftEye
							{
								OFFSET 3.2064 5.3802 7.5869
								CHANNELS 3 Zrotation Xrotation Yrotation
								End Site
								{
									OFFSET 0.0 1.0 0.0
								}
							}
							JOINT RightEye
							{
								OFFSET -3.2224 5.3619 7.5582
								CHANNELS 3 Zrotation Xrotation Yrotation
								End Site
								{
									OFFSET 0.0 1.0 0.0
								}
							}
						}
					}
				}
				JOINT LeftShoulder
				{
					OFFSET 1.6217 23.2372 5.1134
					CHANNELS 3 Zrotation Xrotation Yrotation
					JOINT LeftArm
					{
						OFFSET 14.9198 0.0000 -5.5023
						CHANNELS 3 Zrotation Xrotation Yrotation
						JOINT LeftForeArm
						{
							OFFSET 28.7393 0.0000 -0.0026
							CHANNELS 3 Zrotation Xrotation Yrotation
							JOINT LeftHand
							{
								OFFSET 27.0940 -0.0000 0.0026
								CHANNELS 3 Zrotation Xrotation Yrotation
								JOINT LeftHandThumbEnd
								{
									OFFSET 12.2686 -3.2202 4.8331
									CHANNELS 3 Zrotation Xrotation Yrotation
									End Site
									{
										OFFSET 0.0 1.0 0.0
									}
								}
								JOINT LeftHandMiddleEnd
								{
									OFFSET 19.0120 -0.3129 -0.0340
									CHANNELS 3 Zrotation Xrotation Yrotation
									End Site
									{
										OFFSET 0.0 1.0 0.0
									}
								}
							}
						}
					}
				}
				JOINT RightShoulder
				{
					OFFSET -1.3801 23.1803 5.2142
					CHANNELS 3 Zrotation Xrotation Yrotation
					JOINT RightArm
					{
						OFFSET -15.0372 0.0000 -5.5456
						CHANNELS 3 Zrotation Xrotation Yrotation
						JOINT RightForeArm
						{
							OFFSET -28.7366 0.0000 -0.0026
							CHANNELS 3 Zrotation Xrotation Yrotation
							JOINT RightHand
							{
								OFFSET -27.1336 -0.0000 0.0026
								CHANNELS 3 Zrotation Xrotation Yrotation
								JOINT RightHandThumbEnd
								{
									OFFSET -12.2642 -3.2115 4.8040
									CHANNELS 3 Zrotation Xrotation Yrotation
									End Site
									{
										OFFSET 0.0 1.0 0.0
									}
								}
								JOINT RightHandMiddleEnd
								{
									OFFSET -19.0006 -0.3066 -0.0316
									CHANNELS 3 Zrotation Xrotation Yrotation
									End Site
									{
										OFFSET 0.0 1.0 0.0
									}
								}
							}
						}
					}
				}
			}
		}
	}
	JOINT LeftLeg
	{
		OFFSET 10.0432 -8.4345 2.5957
		CHANNELS 3 Zrotation Xrotation Yrotation
		JOINT LeftShin
		{
			OFFSET -0.0000 -43.2218 -0.8029
			CHANNELS 3 Zrotation Xrotation Yrotation
			JOINT LeftFoot
			{
				OFFSET 0.0000 -42.1551 -3.4815
				CHANNELS 3 Zrotation Xrotation Yrotation
				JOINT LeftToeBase
				{
					OFFSET 0.0000 -5.0595 13.2315
					CHANNELS 3 Zrotation Xrotation Yrotation
					End Site
					{
						OFFSET 0.0 1.0 0.0
					}
				}
			}
		}
	}
	JOINT RightLeg
	{
		OFFSET -10.0473 -8.2953 2.6203
		CHANNELS 3 Zrotation Xrotation Yrotation
		JOINT RightShin
		{
			OFFSET 0.0000 -43.3622 -0.8056
			CHANNELS 3 Zrotation Xrotation Yrotation
			JOINT RightFoot
			{
				OFFSET 0.0000 -42.1174 -3.4784
				CHANNELS 3 Zrotation Xrotation Yrotation
				JOINT RightToeBase
				{
					OFFSET -0.0000 -5.0796 13.2842
					CHANNELS 3 Zrotation Xrotation Yrotation
					End Site
					{
						OFFSET 0.0 1.0 0.0
					}
				}
			}
		}
	}
}
MOTION
Frames: 5
Frame Time: 0.033333
0.6178 99.0041 12.3844 0.6510 1.6547 -8.0423 -0.0733 -0.4889 -0.2885 -0.2439 -5.0753 -0.6281 2.4082 6.8040 -1.5450 -3.3876 -4.5814 3.6893 0.3873 -3.6748 3.4702 -0.6945 -14.9228 3.7125 0.0539 0.1069 0.1041 0.6610 -10.4541 -3.7560 -0.5611 -10.4734 3.9469 -4.0918 12.5105 2.9514 -7.1829 -31.7164 19.4127 2.8063 -0.7845 -141.6945 21.3055 -7.7283 -9.8903 -13.9411 10.3866 14.1491 -59.0157 1.6512 2.0845 0.4027 10.0562 5.8427 0.1585 -26.0884 -7.5204 -0.7900 1.1285 131.8799 -25.3941 -11.8135 9.6756 14.9020 7.7791 -16.9812 50.3964 -3.5917 -5.5560 7.1721 -1.9947 12.6143 -0.0902 10.1600 -0.3782 -8.3144 -8.8238 -8.0705 1.6270 -1.1620 -1.9925 -10.0294 -2.9847 -11.5839 0.0703 9.4247 0.3638 9.7744 -8.8169 7.8127 -1.4051 -0.1256 0.9614
0.7886 98.8300 11.6199 0.8415 1.6055 -8.2442 0.0303 0.4837 -0.2458 -0.2015 -4.7756 -0.4664 2.1754 7.3312 -1.4022 -3.6224 -4.7018 3.8483 0.3546 -3.6438 3.4646 -0.6322 -16.6978 3.7185 0.0576 0.1187 0.0973 0.6578 -10.4639 -3.7663 -0.5512 -10.4687 3.9416 -3.7567 13.2266 3.1240 -9.2555 -29.4606 19.1354 2.3201 -0.4537 -142.6341 20.0424 -4.6750 -9.2711 -14.1267 10.3336 14.3298 -59.2902 1.5740 2.1261 -1.4099 10.4795 6.2815 2.2370 -22.9198 -8.1347 -1.0096 0.9128 129.9860 -26.1518 -12.3738 10.9153 14.6854 7.7111 -16.9228 49.9818 -3.7266 -5.4974 6.8646 -3.6866 12.5986 -0.0911 12.9337 -0.3813 -7.9711 -9.6765 -8.0043 1.6265 -1.2578 -2.0153 -10.2009 -4.8323 -11.2573 0.0733 12.2248 0.3915 9.6317 -9.8533 7.8249 -1.4034 -0.0967 0.9447
0.9822 98.5237 10.6663 1.1423 1.4317 -8.2817 0.0916 1.7166 -0.1866 -0.1516 -4.4125 -0.2896 1.8459 8.2075 -1.4139 -3.9223 -4.5452 4.0941 0.2860 -3.6320 3.3591 -0.5382 -18.5862 3.6872 0.0641 0.1375 0.1064 0.6520 -10.4926 -3.7676 -0.5330 -10.4824 3.9590 -3.6875 14.2355 3.2807 -12.4872 -26.0551 18.4406 1.3705 0.0927 -143.4051 18.0821 -0.8332 -8.0745 -14.4867 10.2911 14.5948 -59.6992 1.4896 2.1761 -2.9017 11.0954 6.7093 5.0085 -18.9508 -9.8131 -1.2272 0.7208 127.8022 -26.7289 -13.4829 12.4886 14.3183 7.6164 -16.7318 49.4894 -3.7870 -5.3462 6.4480 -5.7013 12.5874 -0.1071 16.3704 -0.3990 -7.5930 -10.6922 -8.0289 1.6282 -1.3260 -2.0446 -10.5432 -7.0482 -10.9533 0.1002 15.7923 0.4276 9.3915 -11.1932 7.8662 -1.4056 -0.0897 0.9215
1.2491 98.0940 9.5925 1.4661 1.1912 -7.9138 0.1084 3.1710 -0.1704 -0.0862 -3.9628 -0.1546 1.4476 9.4835 -1.6324 -4.2342 -4.1112 4.3820 0.2196 -3.6625 3.2449 -0.4974 -20.2793 3.5928 0.0688 0.1387 0.1192 0.6426 -10.5313 -3.7665 -0.5139 -10.5182 3.9850 -4.2968 15.6725 3.2749 -16.6238 -21.1082 16.2704 -0.0097 0.8975 -143.2506 15.3406 5.0896 -5.6166 -14.9717 10.2620 14.8960 -60.1792 1.4758 2.2476 -3.3781 11.8809 7.0780 8.3915 -13.6196 -12.5192 -1.3778 0.7221 125.5619 -27.0483 -15.2766 14.9570 13.9217 7.4186 -16.3138 49.0278 -3.6874 -5.0808 5.9936 -8.0057 12.4367 -0.1426 20.1351 -0.4562 -7.1798 -11.7146 -8.2820 1.6326 -1.3126 -2.0678 -10.9688 -9.4709 -10.8704 0.1359 19.7686 0.4498 9.1111 -12.6046 7.8408 -1.4088 -0.0802 0.9009
1.5136 97.5953 8.4104 1.7658 0.9950 -6.9896 0.0845 4.6547 -0.2314 0.0042 -3.5099 -0.1551 1.0270 11.2442 -2.0636 -4.5388 -3.3218 4.6262 0.1773 -3.7332 3.1682 -0.4203 -21.7069 3.3869 0.0641 0.1205 0.1190 0.6366 -10.5717 -3.7721 -0.5180 -10.5763 3.9961 -6.1793 17.5688 2.8505 -20.7631 -15.5199 11.4495 -1.5542 1.5772 -140.9262 13.1657 13.8168 -1.9681 -15.3762 10.1870 15.1087 -60.3440 1.5266 2.3448 -2.1660 12.8928 7.3096 12.1959 -8.0318 -15.4244 -1.0291 0.8736 123.0440 -27.2782 -18.3172 19.7208 13.6137 7.2510 -15.8257 48.7526 -3.4750 -4.8299 5.5175 -10.3965 12.0533 -0.1770 23.6200 -0.4987 -6.7334 -12.5223 -8.8430 1.6312 -1.2380 -2.0471 -11.3729 -11.8181 -11.1711 0.1766 23.5058 0.4864 8.8861 -13.8227 7.5967 -1.4133 -0.0335 0.9006
